<svg
  id="e33wma7yuvm41"
  xmlns="http://www.w3.org/2000/svg"
  xmlns:xlink="http://www.w3.org/1999/xlink"
  viewBox="0 0 16 16"
  shape-rendering="geometricPrecision"
  text-rendering="geometricPrecision"
>
  <style>
    <![CDATA[#e33wma7yuvm42_tr {animation: e33wma7yuvm42_tr__tr 3000ms linear infinite normal forwards}@keyframes e33wma7yuvm42_tr__tr { 0% {transform: translate(8px,8px) rotate(360deg)} 100% {transform: translate(8px,8px) rotate(720deg)} }]]>
  </style>
  <defs>
    <linearGradient
      id="e33wma7yuvm42-fill"
      x1="0"
      y1="0.500000"
      x2="1"
      y2="0.500000"
      spreadMethod="pad"
      gradientUnits="objectBoundingBox"
    >
      <stop id="e33wma7yuvm42-fill-0" offset="0%" stop-color="rgb(255,152,0)" />
      <stop
        id="e33wma7yuvm42-fill-1"
        offset="100%"
        stop-color="rgb(208,210,12)"
      />
    </linearGradient>
  </defs>
  <g id="e33wma7yuvm42_tr" transform="translate(8,8) rotate(360)">
    <path
      id="e33wma7yuvm42"
      d="M12,8C12,10.209139,10.209139,12,8,12C5.790861,12,4,10.209139,4,8C4,5.790861,5.790861,4,8,4C10.209139,4,12,5.790861,12,8ZM8,0C8.276142,0,8.500000,0.223858,8.500000,0.500000L8.500000,2.500000C8.500000,2.776142,8.276142,3,8,3C7.723858,3,7.500000,2.776142,7.500000,2.500000L7.500000,0.500000C7.500000,0.223858,7.723858,0,8,0ZM8,13C8.276142,13,8.500000,13.223858,8.500000,13.500000L8.500000,15.500000C8.500000,15.776142,8.276142,16,8,16C7.723858,16,7.500000,15.776142,7.500000,15.500000L7.500000,13.500000C7.500000,13.223858,7.723858,13,8,13ZM16,8C16,8.276142,15.776142,8.500000,15.500000,8.500000L13.500000,8.500000C13.223858,8.500000,13,8.276142,13,8C13,7.723858,13.223858,7.500000,13.500000,7.500000L15.500000,7.500000C15.776142,7.500000,16,7.723858,16,8ZM3,8C3,8.276142,2.776142,8.500000,2.500000,8.500000L0.500000,8.500000C0.223858,8.500000,0,8.276142,0,8C0,7.723858,0.223858,7.500000,0.500000,7.500000L2.500000,7.500000C2.776142,7.500000,3,7.723858,3,8ZM13.657000,2.343000C13.852191,2.538250,13.852191,2.854750,13.657000,3.050000L12.243000,4.465000C12.047491,4.660233,11.730733,4.660009,11.535500,4.464500C11.340267,4.268991,11.340491,3.952233,11.536000,3.757000L12.950000,2.343000C13.145250,2.147809,13.461750,2.147809,13.657000,2.343000ZM4.464000,11.536000C4.659191,11.731250,4.659191,12.047750,4.464000,12.243000L3.050000,13.657000C2.853811,13.846486,2.541958,13.843776,2.349091,13.650909C2.156224,13.458042,2.153514,13.146189,2.343000,12.950000L3.757000,11.536000C3.952250,11.340809,4.268750,11.340809,4.464000,11.536000ZM13.657000,13.657000C13.461750,13.852191,13.145250,13.852191,12.950000,13.657000L11.536000,12.243000C11.346514,12.046811,11.349224,11.734958,11.542091,11.542091C11.734958,11.349224,12.046811,11.346514,12.243000,11.536000L13.657000,12.950000C13.852191,13.145250,13.852191,13.461750,13.657000,13.657000ZM4.464000,4.465000C4.268750,4.660191,3.952250,4.660191,3.757000,4.465000L2.343000,3.050000C2.213022,2.924463,2.160894,2.738561,2.206651,2.563746C2.252409,2.388932,2.388932,2.252409,2.563746,2.206651C2.738561,2.160894,2.924463,2.213022,3.050000,2.343000L4.464000,3.757000C4.558042,3.850804,4.610894,3.978173,4.610894,4.111000C4.610894,4.243827,4.558042,4.371196,4.464000,4.465000Z"
      transform="translate(-8,-8)"
      fill="url(#e33wma7yuvm42-fill)"
      stroke="none"
      stroke-width="1"
    />
  </g>
</svg>
