<svg
  xmlns="http://www.w3.org/2000/svg"
  class="bi bi-sunrise-fill"
  viewBox="0 0 16 16"
>
  <defs>
    <linearGradient
      id="sunrise"
      x1="-0.219679"
      y1="0.410461"
      x2="1"
      y2="-0"
      spreadMethod="pad"
      gradientUnits="objectBoundingBox"
    >
    <stop id="sunrise-2" offset="0%" stop-color="#FEFE79" />
    <stop
      id="sunrise-3"
      offset="100%"
      stop-color="#EC99A5"
    />
    </linearGradient>
  </defs>

  <path
    d="M7.646 1.146a.5.5 0 0 1 .708 0l1.5 1.5a.5.5 0 0 1-.708.708L8.5 2.707V4.5a.5.5 0 0 1-1 0V2.707l-.646.647a.5.5 0 1 1-.708-.708l1.5-1.5zM2.343 4.343a.5.5 0 0 1 .707 0l1.414 1.414a.5.5 0 0 1-.707.707L2.343 5.05a.5.5 0 0 1 0-.707zm11.314 0a.5.5 0 0 1 0 .707l-1.414 1.414a.5.5 0 1 1-.707-.707l1.414-1.414a.5.5 0 0 1 .707 0zM11.709 11.5a4 4 0 1 0-7.418 0H.5a.5.5 0 0 0 0 1h15a.5.5 0 0 0 0-1h-3.79zM0 10a.5.5 0 0 1 .5-.5h2a.5.5 0 0 1 0 1h-2A.5.5 0 0 1 0 10zm13 0a.5.5 0 0 1 .5-.5h2a.5.5 0 0 1 0 1h-2a.5.5 0 0 1-.5-.5z" fill='url("#sunrise")'
  />
</svg>
