<svg
  xmlns="http://www.w3.org/2000/svg"
  class="bi bi-wind"
  viewBox="0 0 16 16" >

  <defs>
    <linearGradient
      id="wind"
      x1="-0.219679"
      y1="0.410461"
      x2="1"
      y2="-0"
      spreadMethod="pad"
      gradientUnits="objectBoundingBox"
    >
    <stop id="first-cloud-0" offset="0%" stop-color="#708287" />
    <stop
      id="first-cloud-1"
      offset="100%"
      stop-color="#689eaa"
    />
    </linearGradient>
  </defs>

  <path
    d="M12.5 2A2.5 2.5 0 0 0 10 4.5a.5.5 0 0 1-1 0A3.5 3.5 0 1 1 12.5 8H.5a.5.5 0 0 1 0-1h12a2.5 2.5 0 0 0 0-5zm-7 1a1 1 0 0 0-1 1 .5.5 0 0 1-1 0 2 2 0 1 1 2 2h-5a.5.5 0 0 1 0-1h5a1 1 0 0 0 0-2zM0 9.5A.5.5 0 0 1 .5 9h10.042a3 3 0 1 1-3 3 .5.5 0 0 1 1 0 2 2 0 1 0 2-2H.5a.5.5 0 0 1-.5-.5z" fill="url('#wind')"
  />
</svg>
